PathFileType	3	(X/Y/Z)	D:\minhoCalibration\240510\subject1_KPNP\preferred\preferred12.trc
DataRate	CameraRate	NumFrames	NumMarkers	Units	OrigDataRate	OrigDataStartFrame	OrigNumFrames
200.0	200.0	27	10	mm	200.0	488	280	
Frame#	Time	Left_Ankle_Outer1			Left_Ankle_Inner1			Left_Knee_Outer1			Left_Knee_Inner1			Left_Wrist1			Right_Wrist1			Right_Knee_Inner1			Right_Knee_Outer1			Right_Ankle_Inner1			Right_Ankle_Outer1			
		X1	Y1	Z1	X2	Y2	Z2	X3	Y3	Z3	X4	Y4	Z4	X5	Y5	Z5	X6	Y6	Z6	X7	Y7	Z7	X8	Y8	Z8	X9	Y9	Z9	X10	Y10	Z10	
488	2.43	-510.30063	106.02464	-548.90369	-556.34808	114.09713	-512.09064	-345.16922	496.21103	-361.06506	-451.43045	478.05334	-336.2915	-334.04074	958.72986	-505.61087	-674.97589	986.10931	-418.42657	-612.8335	518.12183	-323.77594	-726.84656	552.99609	-322.53445	-732.3194	101.47334	-364.65997	-835.26923	102.82419	-329.2966
489	2.435	-510.48816	105.70126	-549.2569	-556.72827	113.83625	-512.42554	-346.77841	497.15567	-362.26578	-453.53815	479.40112	-337.68463	-333.79715	959.86499	-504.33142	-675.26117	987.00995	-423.96295	-616.62085	518.5578	-328.97577	-730.80341	553.58929	-330.72354	-732.91528	101.85209	-364.39761	-836.16339	102.78883	-329.66183
490	2.44	-510.53809	105.46555	-549.54108	-556.8797	113.63127	-512.95526	-348.57242	498.20401	-363.74496	-456.04324	480.12289	-339.92038	-333.67657	961.2085	-503.01343	-676.57117	988.04907	-428.8006	-620.51422	518.74945	-333.48993	-734.63037	554.27112	-338.81058	-733.74774	102.72284	-364.319	-837.04077	103.15893	-329.79776
491	2.445	-510.59784	105.30791	-549.89246	-556.99371	113.45338	-513.45758	-350.59277	499.52838	-365.26523	-457.48279	481.71448	-342.73465	-333.90796	962.84283	-501.48892	-677.58087	989.23126	-433.85458	-624.59149	519.22363	-337.10474	-738.03754	554.87982	-346.74786	-734.96967	103.87117	-364.09741	-838.09338	104.00984	-329.6972
492	2.45	-510.54996	105.19433	-550.36029	-556.84821	113.12049	-513.8559	-352.55515	500.95917	-366.83972	-459.54208	482.85608	-345.77969	-333.72626	964.69635	-500.32306	-678.24829	990.45911	-439.20929	-628.82629	519.94318	-339.96356	-741.42633	555.65259	-354.21735	-736.52844	105.38544	-363.86441	-839.47095	105.06694	-329.68439
493	2.455	-510.38425	105.17281	-550.8382	-556.75531	113.40029	-514.7923	-354.3952	502.3985	-368.7695	-461.56702	484.44308	-348.62057	-333.65112	966.78217	-499.11865	-679.58112	991.48798	-444.36072	-633.15845	521.03064	-341.9884	-744.68756	556.53595	-361.23309	-738.45831	106.91722	-363.88965	-841.45807	106.54677	-329.5025
494	2.46	-510.28931	105.07413	-551.33875	-556.74872	113.17122	-515.258	-356.20544	503.90814	-370.82477	-464.16962	486.04346	-351.00119	-333.62369	968.9306	-497.98859	-679.76843	992.66437	-450.32071	-637.38477	522.47784	-343.49481	-747.86823	557.53741	-367.73044	-740.40704	108.68209	-364.3493	-843.51068	107.91529	-330.15353
495	2.465	-509.97943	105.0022	-551.86383	-556.4549	113.15285	-515.81653	-357.85883	505.49817	-373.00214	-465.76166	487.8103	-354.39774	-333.6557	971.2287	-496.832	-681.38074	993.85474	-454.91415	-641.23438	524.21521	-344.69073	-750.77203	558.48169	-373.67819	-742.29797	110.64308	-365.13492	-845.39087	109.67392	-330.55524
496	2.47	-509.65439	104.89916	-552.40668	-555.91559	113.20722	-516.50781	-359.98239	507.00867	-375.30377	-467.60278	489.20251	-357.90762	-333.65747	973.70557	-495.78815	-682.47742	995.42572	-460.0744	-644.37885	526.3418	-345.89075	-753.24884	559.53015	-378.97415	-744.04083	112.5687	-366.11017	-847.20953	111.4465	-331.74542
497	2.475	-509.28677	104.76773	-553.08929	-555.77594	113.00188	-517.22314	-361.53476	508.59695	-377.76697	-469.52756	490.70834	-361.24997	-333.73697	976.20343	-494.74899	-683.63892	996.60889	-465.47009	-646.58643	528.91827	-347.26273	-755.28333	560.96063	-383.29391	-745.45502	114.57401	-367.25955	-848.73322	112.88707	-333.66171
498	2.48	-508.85992	104.54262	-553.72253	-555.15332	112.9011	-518.20697	-363.37924	510.12021	-380.30585	-472.04034	492.00082	-364.22986	-334.33469	978.54431	-493.61182	-684.59418	997.35284	-471.29865	-648.07397	531.92206	-348.7597	-756.71881	562.63818	-386.19818	-746.64911	116.38852	-368.7681	-850.22546	114.95421	-335.72342
499	2.485	-508.47614	104.31455	-554.3938	-554.94067	112.60994	-518.98914	-365.44901	511.44635	-382.95221	-474.11627	493.3775	-367.50674	-334.49661	981.02832	-492.59021	-685.98474	998.38208	-476.96643	-649.2251	535.26526	-349.90823	-757.64618	564.63123	-387.60757	-747.60425	118.30955	-370.87402	-851.28412	116.84453	-338.5705
500	2.49	-508.19452	103.75748	-554.79321	-554.54858	112.28837	-519.84125	-367.12567	512.78442	-385.67569	-475.19312	494.7493	-371.82593	-335.19495	983.55573	-491.48758	-686.99207	999.19098	-482.90689	-650.01733	538.61829	-350.8764	-758.15271	566.88342	-388.07639	-748.26892	120.22188	-373.51794	-852.45386	118.99805	-342.09534
501	2.495	-507.58423	103.6218	-555.93817	-554.14014	111.99452	-520.75751	-369.28503	513.85278	-388.43118	-478.11536	495.34207	-375.03162	-335.92224	985.53571	-490.45758	-688.16071	1000.5425	-488.35089	-650.92816	542.03265	-351.19864	-758.53491	569.28436	-388.06985	-748.8468	122.11598	-376.55713	-853.64661	121.07035	-346.54062
502	2.5	-507.17389	103.14658	-556.71143	-554.01379	111.58179	-521.99945	-370.79709	515.0816	-391.16501	-479.99893	496.37869	-378.93628	-336.67081	987.53149	-489.57272	-689.28894	1001.6517	-494.00122	-651.7735	545.34363	-351.37112	-758.88849	571.89081	-388.02063	-749.21594	124.02613	-380.08826	-854.33136	122.90858	-351.81229
503	2.505	-506.93393	102.62147	-557.38892	-553.88885	111.44749	-523.06299	-372.95993	515.78754	-394.01852	-481.86218	497.32199	-382.60715	-337.55884	989.23328	-488.74835	-690.07666	1003.3107	-499.39917	-652.76141	548.6969	-351.31934	-759.29028	574.60608	-388.16476	-749.45032	126.01369	-384.0304	-855.18762	125.07404	-357.34302
504	2.51	-507.04807	101.83384	-557.73065	-553.61877	110.80046	-523.5896	-374.43222	516.77667	-396.79083	-484.35571	498.18073	-385.68594	-338.96814	991.16785	-487.46091	-691.15411	1004.3345	-504.88037	-653.9306	552.09174	-351.10672	-759.83881	577.43475	-388.61908	-749.48682	128.0135	-388.8689	-855.67267	126.72277	-363.57532
505	2.515	-506.96869	101.30387	-558.31476	-553.7002	110.53695	-524.57178	-376.14023	517.47577	-399.68912	-486.1438	498.36923	-390.02704	-339.58972	992.18127	-487.11584	-692.01599	1005.8901	-509.8945	-655.21527	555.47223	-350.82806	-760.54413	580.33881	-389.33853	-749.22345	130.10703	-393.34641	-855.7655	128.33784	-370.22488
506	2.52	-506.99936	100.97291	-559.09607	-553.94348	109.9958	-525.07629	-378.05026	518.08124	-402.47205	-488.13751	498.98331	-393.62323	-340.61771	993.24292	-486.60727	-692.8844	1007.4642	-514.59558	-656.64539	558.78882	-350.64526	-761.37415	583.1391	-390.35504	-748.80359	132.19513	-397.966	-855.84491	130.04893	-377.11285
507	2.525	-507.32767	100.33008	-559.62244	-554.12848	109.48971	-525.45422	-379.99811	519.14478	-404.88199	-489.93341	499.91498	-397.15372	-341.87082	994.21301	-486.04575	-693.69019	1009.1439	-518.8996	-658.21161	562.04944	-350.38339	-762.35168	585.79254	-391.6629	-748.10449	134.31125	-402.85815	-855.67798	131.75877	-384.23209
508	2.53	-507.74704	99.832237	-560.03308	-554.37787	108.80556	-525.63025	-381.68744	519.50299	-407.90665	-491.95007	500.46445	-400.65497	-343.51904	994.74219	-485.39575	-694.39331	1010.9102	-523.06049	-659.99023	565.20251	-350.27255	-763.40332	588.34283	-393.19354	-747.94897	135.80699	-407.91467	-855.08771	133.48053	-391.53308
509	2.535	-508.22205	99.325676	-560.35449	-554.87299	108.33241	-526.14471	-383.54132	520.03253	-410.67661	-493.67215	500.6218	-404.99304	-344.14944	994.96515	-485.77112	-695.09546	1012.6396	-526.88556	-661.87146	568.20978	-350.1994	-764.55493	590.71558	-394.90659	-746.84131	138.06126	-412.90894	-854.38403	135.10147	-399.24005
510	2.54	-508.73636	98.774261	-560.70972	-554.83276	107.37617	-525.88165	-385.3884	520.54089	-413.39014	-495.62338	501.64264	-408.17087	-345.30988	995.16449	-485.93423	-695.74701	1014.3732	-530.3808	-663.93622	570.93469	-350.26984	-765.71869	592.99463	-396.79279	-745.80896	140.34023	-417.81427	-854.4729	136.82588	-407.74982
511	2.545	-509.24408	98.297302	-561.07007	-555.17902	107.30943	-525.63617	-387.30261	521.03595	-416.06378	-497.81131	502.42758	-410.89789	-346.42792	995.31665	-486.17853	-696.40845	1016.0009	-533.57507	-666.09515	573.46619	-350.39618	-766.8114	595.15417	-398.80017	-744.35577	142.68327	-423.19202	-853.93427	138.4523	-415.60641
512	2.55	-509.77625	97.88726	-561.44531	-555.85486	107.05296	-525.99316	-389.21405	521.52228	-418.64172	-499.90198	502.10928	-414.87439	-347.25354	995.08496	-486.7937	-697.08374	1017.6351	-536.45325	-668.37506	576.05792	-349.71695	-767.89709	597.29938	-400.77679	-743.5788	144.45979	-428.57504	-852.7475	140.17104	-423.82471
513	2.555	-510.35196	97.331619	-561.74121	-556.19543	106.25615	-526.38434	-391.0303	521.87042	-421.29385	-501.5983	502.50351	-418.34579	-348.27432	994.90204	-487.37653	-697.62311	1019.0745	-539.18134	-670.49438	578.00177	-350.38046	-769.03882	599.31653	-402.7366	-742.51471	146.31998	-434.33694	-851.82983	141.84283	-432.27347
514	2.56	-511.04987	96.538025	-561.685	-556.49487	105.57341	-526.66089	-392.92715	522.21661	-423.84579	-503.15494	502.85269	-422.09546	-349.46545	994.74634	-487.82587	-698.23883	1020.4391	-541.73352	-672.54346	579.74158	-351.23273	-770.15259	601.24249	-404.59128	-741.19025	148.33133	-440.35376	-850.7251	143.56212	-440.43484
